<svg width="308" height="60" viewBox="0 0 308 60" fill="none" xmlns="http://www.w3.org/2000/svg">
<g clip-path="url(#clip0_1_190)">
<path d="M30.6886 0C22.5495 0 14.7437 3.16071 8.98848 8.7868C3.23325 14.4129 0 22.0435 0 30C0 37.9565 3.23325 45.5871 8.98848 51.2132C14.7437 56.8393 22.5495 60 30.6886 60V0Z" fill="#EA4722"/>
<path d="M64.8864 0H37.4128V19.9964H64.8864V0Z" fill="#EDAA1E"/>
<path d="M64.8864 60.0001C57.6 60.0001 50.612 57.1705 45.4597 52.1338C40.3074 47.0971 37.4128 40.2659 37.4128 33.1429V26.2822H64.8864V60.0001Z" fill="#32A981"/>
<path d="M76.4587 30.4317C76.4647 29.0215 76.7568 27.6264 77.318 26.3273C77.8792 25.0282 78.6985 23.8508 79.7283 22.8633C80.7581 21.8758 81.9781 21.0977 83.3175 20.5742C84.657 20.0506 86.0894 19.792 87.5318 19.8132C90.257 19.7969 92.8989 20.7308 94.9832 22.4472L92.0788 25.699C90.8331 24.6763 89.2403 24.1475 87.6151 24.217C86.7703 24.1878 85.9283 24.3282 85.1412 24.6297C84.3541 24.9311 83.6386 25.3872 83.0389 25.9696C82.4392 26.5521 81.9681 27.2486 81.6546 28.016C81.3411 28.7835 81.192 29.6057 81.2164 30.4317C81.2164 33.9299 83.742 36.6051 87.7415 36.6051C89.6032 36.6398 91.4142 36.0107 92.8361 34.8354L95.4039 38.2923C93.1889 40.0758 90.4011 41.0378 87.5316 41.0088C86.0915 41.0347 84.6604 40.7807 83.3216 40.2613C81.9827 39.742 80.7628 38.9679 79.7326 37.9838C78.7024 36.9997 77.8824 35.8253 77.3204 34.5289C76.7584 33.2324 76.4655 31.8397 76.4587 30.4317Z" fill="black"/>
<path d="M97.3434 30.4316C97.3434 24.5469 101.26 19.8131 106.985 19.8131C108.297 19.7867 109.599 20.0421 110.799 20.5612C111.999 21.0802 113.068 21.8504 113.931 22.8173V20.2246H118.605V40.5972H113.931V38.0454C113.066 39.0068 111.996 39.7705 110.795 40.2825C109.595 40.7946 108.294 41.0424 106.985 41.0084C101.259 41.0087 97.3434 36.276 97.3434 30.4316ZM113.931 30.4316C113.931 26.8508 111.49 24.2169 108.164 24.2169C104.627 24.2169 102.102 26.8508 102.102 30.4316C102.102 34.0124 104.627 36.605 108.164 36.605C111.447 36.6049 113.931 34.0535 113.931 30.4316H113.931Z" fill="black"/>
<path d="M123.323 20.2247H127.996V23.23C128.635 22.2027 129.531 21.3505 130.598 20.753C131.666 20.1556 132.871 19.8322 134.101 19.8132C137.384 19.8132 139.574 21.2128 140.668 23.6828C141.386 22.5343 142.386 21.5791 143.577 20.9034C144.768 20.2278 146.112 19.8531 147.489 19.8132C152.962 19.8132 155.403 23.1062 155.403 28.8685V40.5973H150.731V29.4849C150.731 26.6457 150.099 24.217 146.436 24.217C143.447 24.217 141.721 26.522 141.721 29.2797V40.5973H137.047V29.4849C137.047 26.6457 136.416 24.217 132.753 24.217C129.638 24.217 127.995 26.8096 127.995 29.5674V40.5973H123.323V20.2247Z" fill="black"/>
<path d="M159.83 20.2247H164.293V22.7775C165.197 21.8092 166.305 21.0432 167.54 20.5317C168.775 20.0202 170.109 19.7752 171.45 19.8135C177.175 19.8135 181.09 24.5472 181.09 30.3906C181.09 36.2763 177.175 41.009 171.45 41.009C170.138 41.0355 168.835 40.7803 167.635 40.2612C166.435 39.7421 165.365 38.9719 164.503 38.0048V46.483H159.83V20.2247ZM176.333 30.3904C176.333 26.8096 173.808 24.217 170.27 24.217C166.987 24.217 164.503 26.7694 164.503 30.3904C164.503 33.9711 166.945 36.605 170.27 36.605C173.808 36.605 176.333 33.9711 176.333 30.3904Z" fill="black"/>
<path d="M184.797 32.6129V20.2249H189.471V31.955C189.471 35.2057 190.945 36.6052 193.85 36.6052C197.091 36.6052 198.817 33.9712 198.817 31.0495V20.2249H203.491V40.5974H199.07V37.4694C197.807 39.6919 194.902 41.0089 192.376 41.0089C186.861 41.0089 184.797 37.9634 184.797 32.6129Z" fill="black"/>
<path d="M207.115 38.0458L208.883 34.3C210.721 35.8513 213.065 36.7122 215.493 36.7288C217.387 36.7288 219.618 36.0288 219.618 34.5888C219.618 33.1068 217.514 32.7366 215.451 32.1601C211.493 31.0906 208.125 29.9376 208.125 25.9454C208.125 21.9531 212.293 19.8131 215.956 19.8131C218.597 19.7791 221.19 20.5098 223.407 21.9132L221.681 25.6166C219.963 24.6137 217.998 24.0874 215.997 24.0945C214.44 24.0945 212.882 24.7937 212.882 25.8642C212.882 27.2626 214.608 27.5927 216.46 27.9629C220.334 28.7859 224.376 30.3081 224.376 34.5066C224.376 39.2805 219.366 41.009 215.493 41.009C212.421 41.0687 209.436 40.0129 207.115 38.0458Z" fill="black"/>
<path d="M229.431 34.0537V23.9705H226.358V20.2248H229.431V16.2336L234.103 15.2869V20.2247H240.376V23.9704H234.103V34.1774C234.103 36.3586 235.156 37.0578 236.334 37.0578C237.42 37.0123 238.47 36.67 239.366 36.0698L240.756 39.4865C239.277 40.469 237.533 40.9989 235.746 41.0088C231.493 41.0088 229.431 38.7451 229.431 34.0537Z" fill="#EA4722"/>
<path d="M242.905 30.4317C242.887 29.0428 243.152 27.6644 243.684 26.3763C244.215 25.0883 245.003 23.9163 246.002 22.9284C247.001 21.9405 248.19 21.1565 249.502 20.6217C250.813 20.0869 252.22 19.8121 253.641 19.8132C259.198 19.8132 263.661 24.547 263.661 30.2677C263.654 30.8595 263.612 31.4505 263.534 32.0375H247.748C248.421 35.2881 251.115 36.9753 254.23 36.9753C256.36 36.9839 258.442 36.3674 260.209 35.2056L262.061 38.5811C259.729 40.1428 256.973 40.9881 254.146 41.0088C248.211 41.0088 242.905 37.1403 242.905 30.4317ZM259.114 28.6619C258.931 27.3086 258.247 26.0676 257.193 25.1729C256.138 24.2783 254.785 23.7919 253.388 23.8055C252.012 23.8444 250.692 24.3502 249.655 25.2363C248.618 26.1224 247.929 27.3335 247.705 28.6619H259.114Z" fill="#EA4722"/>
<path d="M266.948 30.4317C266.954 29.0215 267.246 27.6264 267.808 26.3273C268.369 25.0282 269.188 23.8508 270.218 22.8633C271.248 21.8758 272.468 21.0977 273.807 20.5742C275.147 20.0506 276.579 19.792 278.022 19.8132C280.747 19.7967 283.389 20.7307 285.473 22.4472L282.569 25.699C281.323 24.6765 279.731 24.1477 278.106 24.217C277.261 24.1878 276.419 24.3282 275.632 24.6296C274.845 24.931 274.129 25.387 273.529 25.9695C272.929 26.5519 272.458 27.2484 272.145 28.0159C271.831 28.7834 271.682 29.6056 271.706 30.4317C271.706 33.9299 274.232 36.6051 278.231 36.6051C280.093 36.6398 281.904 36.0107 283.326 34.8354L285.894 38.2923C283.679 40.0758 280.891 41.0378 278.022 41.0088C276.581 41.0348 275.15 40.7807 273.811 40.2614C272.473 39.7421 271.253 38.968 270.222 37.9839C269.192 36.9998 268.372 35.8254 267.81 34.5289C267.248 33.2325 266.955 31.8397 266.948 30.4317Z" fill="#EA4722"/>
<path d="M289.139 13.5171H293.812V23.1475C294.538 22.0744 295.537 21.2034 296.71 20.6191C297.883 20.0348 299.19 19.7571 300.505 19.8129C305.979 19.8129 308 23.3111 308 28.9091V40.5973H303.326V29.4849C303.326 26.1517 302.4 24.217 298.948 24.217C295.706 24.217 293.811 26.7282 293.811 29.8964V40.5973H289.139L289.139 13.5171Z" fill="#EA4722"/>
</g>
<defs>
<clipPath id="clip0_1_190">
<rect width="308" height="60" fill="white"/>
</clipPath>
</defs>
</svg>
